<?xml version="1.0" standalone="no"?>
<!DOCTYPE svg PUBLIC "-//W3C//DTD SVG 20010904//EN"
 "http://www.w3.org/TR/2001/REC-SVG-20010904/DTD/svg10.dtd">
<svg version="1.0" xmlns="http://www.w3.org/2000/svg"
 width="320.000000pt" height="320.000000pt" viewBox="0 0 320.000000 320.000000"
 preserveAspectRatio="xMidYMid meet">
<metadata>
Created by potrace 1.14, written by Peter Selinger 2001-2017
</metadata>
<g transform="translate(0.000000,320.000000) scale(0.100000,-0.100000)"
fill="#000000" stroke="none">
<path d="M78 2861 l-33 -29 -3 -602 -2 -602 33 -33 c30 -30 32 -35 17 -40 -10
-3 -25 -21 -34 -39 -14 -30 -16 -104 -16 -620 l0 -586 29 -32 29 -33 1496 -3
1495 -2 33 29 33 29 3 592 c2 528 1 595 -14 625 -9 19 -24 37 -34 40 -15 5
-13 10 16 39 l34 34 0 597 0 597 -34 34 -34 34 -1491 0 -1491 0 -32 -29z"/>
</g>
</svg>
